<svg width="25" height="24" viewBox="0 0 25 24" fill="none" xmlns="http://www.w3.org/2000/svg">
<path d="M16.832 6H13.832C13.2797 6 12.832 6.44772 12.832 7V10H16.832C16.9457 9.99748 17.0536 10.0504 17.1212 10.1419C17.1888 10.2334 17.2078 10.352 17.172 10.46L16.432 12.66C16.3638 12.8619 16.1751 12.9984 15.962 13H12.832V20.5C12.832 20.7761 12.6081 21 12.332 21H9.83203C9.55589 21 9.33203 20.7761 9.33203 20.5V13H7.83203C7.55589 13 7.33203 12.7761 7.33203 12.5V10.5C7.33203 10.2239 7.55589 10 7.83203 10H9.33203V7C9.33203 4.79086 11.1229 3 13.332 3H16.832C17.1081 3 17.332 3.22386 17.332 3.5V5.5C17.332 5.77614 17.1081 6 16.832 6Z" fill="#043962"/>
</svg>
