<svg width="25" height="24" viewBox="0 0 25 24" fill="none" xmlns="http://www.w3.org/2000/svg">
<path fill-rule="evenodd" clip-rule="evenodd" d="M16.332 3H8.33203C5.57061 3 3.33203 5.23858 3.33203 8V16C3.33203 18.7614 5.57061 21 8.33203 21H16.332C19.0934 21 21.332 18.7614 21.332 16V8C21.332 5.23858 19.0934 3 16.332 3ZM19.582 16C19.5765 17.7926 18.1246 19.2445 16.332 19.25H8.33203C6.53938 19.2445 5.08752 17.7926 5.08203 16V8C5.08752 6.20735 6.53938 4.75549 8.33203 4.75H16.332C18.1246 4.75549 19.5765 6.20735 19.582 8V16ZM17.082 8.25C17.6343 8.25 18.082 7.80228 18.082 7.25C18.082 6.69772 17.6343 6.25 17.082 6.25C16.5297 6.25 16.082 6.69772 16.082 7.25C16.082 7.80228 16.5297 8.25 17.082 8.25ZM12.332 7.5C9.84675 7.5 7.83203 9.51472 7.83203 12C7.83203 14.4853 9.84675 16.5 12.332 16.5C14.8173 16.5 16.832 14.4853 16.832 12C16.8347 10.8057 16.3614 9.65957 15.5169 8.81508C14.6724 7.97059 13.5263 7.49734 12.332 7.5ZM9.58203 12C9.58203 13.5188 10.8132 14.75 12.332 14.75C13.8508 14.75 15.082 13.5188 15.082 12C15.082 10.4812 13.8508 9.25 12.332 9.25C10.8132 9.25 9.58203 10.4812 9.58203 12Z" fill="#043962"/>
</svg>
