<svg width="25" height="24" viewBox="0 0 25 24" fill="none" xmlns="http://www.w3.org/2000/svg">
<path fill-rule="evenodd" clip-rule="evenodd" d="M5.33203 3H19.332C20.4366 3 21.332 3.89543 21.332 5V19C21.332 20.1046 20.4366 21 19.332 21H5.33203C4.22746 21 3.33203 20.1046 3.33203 19V5C3.33203 3.89543 4.22746 3 5.33203 3ZM8.33203 18C8.60817 18 8.83203 17.7761 8.83203 17.5V10.5C8.83203 10.2239 8.60817 10 8.33203 10H6.83203C6.55589 10 6.33203 10.2239 6.33203 10.5V17.5C6.33203 17.7761 6.55589 18 6.83203 18H8.33203ZM7.58203 9C6.7536 9 6.08203 8.32843 6.08203 7.5C6.08203 6.67157 6.7536 6 7.58203 6C8.41046 6 9.08203 6.67157 9.08203 7.5C9.08203 8.32843 8.41046 9 7.58203 9ZM17.832 18C18.1081 18 18.332 17.7761 18.332 17.5V12.9C18.3645 11.3108 17.1896 9.95452 15.612 9.76C14.509 9.65925 13.4403 10.1744 12.832 11.1V10.5C12.832 10.2239 12.6081 10 12.332 10H10.832C10.5559 10 10.332 10.2239 10.332 10.5V17.5C10.332 17.7761 10.5559 18 10.832 18H12.332C12.6081 18 12.832 17.7761 12.832 17.5V13.75C12.832 12.9216 13.5036 12.25 14.332 12.25C15.1604 12.25 15.832 12.9216 15.832 13.75V17.5C15.832 17.7761 16.0559 18 16.332 18H17.832Z" fill="#043962"/>
</svg>
