<svg width="25" height="24" viewBox="0 0 25 24" fill="none" xmlns="http://www.w3.org/2000/svg">
<path d="M21.3057 6.7174C20.8413 7.33692 20.2799 7.87733 19.6432 8.31776C19.6432 8.47959 19.6432 8.64142 19.6432 8.81225C19.6483 11.7511 18.4744 14.5691 16.3847 16.6345C14.2949 18.6999 11.4641 19.8399 8.52694 19.7989C6.82888 19.8046 5.15256 19.4169 3.62931 18.6661C3.54717 18.6302 3.4942 18.549 3.49451 18.4593V18.3604C3.49451 18.2313 3.59912 18.1267 3.72816 18.1267C5.39731 18.0716 7.00691 17.4929 8.32923 16.4724C6.81842 16.4419 5.45908 15.5469 4.83349 14.1707C4.8019 14.0956 4.81173 14.0093 4.85946 13.9432C4.90718 13.8771 4.98589 13.8407 5.06714 13.8471C5.52631 13.8932 5.99007 13.8505 6.43309 13.7212C4.76528 13.375 3.5121 11.9904 3.33275 10.2957C3.32638 10.2144 3.36281 10.1357 3.42889 10.0879C3.49496 10.0402 3.58113 10.0303 3.65627 10.062C4.10383 10.2595 4.58698 10.3635 5.07613 10.3676C3.61473 9.40846 2.9835 7.58405 3.53944 5.92622C3.59683 5.76513 3.7347 5.64612 3.90239 5.61294C4.07007 5.57975 4.24285 5.63728 4.35721 5.76439C6.32928 7.86325 9.03893 9.11396 11.9148 9.25279C11.8412 8.95885 11.805 8.65676 11.807 8.35372C11.8339 6.76472 12.8171 5.34921 14.2963 4.76987C15.7754 4.19054 17.4578 4.56203 18.5559 5.71044C19.3043 5.56785 20.0279 5.31645 20.7036 4.96421C20.7531 4.93331 20.8159 4.93331 20.8654 4.96421C20.8963 5.01373 20.8963 5.07652 20.8654 5.12604C20.5381 5.87552 19.9852 6.50412 19.2838 6.92419C19.898 6.85296 20.5014 6.70807 21.0811 6.49264C21.1299 6.45942 21.194 6.45942 21.2428 6.49264C21.2837 6.51134 21.3143 6.54711 21.3264 6.59042C21.3385 6.63373 21.3309 6.68018 21.3057 6.7174Z" fill="#043962"/>
</svg>
