<svg width="352" height="271" viewBox="0 0 352 271" fill="none" xmlns="http://www.w3.org/2000/svg">
<g clip-path="url(#clip0_916_19135)">
<path d="M235.894 76.5245C243.445 56.2792 261.286 38.7859 282.847 36.7051C269.884 56.3185 264.297 79.8718 267.073 103.198C268.177 112.19 270.343 122.076 265.482 129.729C262.457 134.491 257.127 137.423 251.632 138.746C246.137 140.069 240.411 139.966 234.76 139.856L233.494 140.479C229.519 119.246 228.342 96.7697 235.894 76.5245Z" fill="#F0F0F0"/>
<path d="M282.947 37.1459C268.249 47.3852 257.16 61.9822 251.255 78.8636C250.012 82.488 249.068 86.2724 249.013 90.121C248.989 93.8728 249.973 97.5627 251.862 100.807C253.563 103.868 255.658 106.802 256.584 110.221C257.559 113.825 256.764 117.471 254.772 120.585C252.334 124.395 248.67 127.105 244.993 129.63C240.911 132.435 236.627 135.283 234.129 139.688C233.827 140.221 233.014 139.722 233.316 139.189C237.662 131.525 246.781 128.741 252.36 122.231C254.963 119.194 256.664 115.355 255.859 111.31C255.155 107.773 252.997 104.746 251.248 101.662C249.412 98.4237 248.212 95.0632 248.072 91.3167C247.929 87.4843 248.727 83.655 249.872 80.0149C252.529 71.7798 256.468 64.0125 261.545 56.9976C267.295 48.9595 274.381 41.9614 282.497 36.306C283 35.9562 283.446 36.7984 282.947 37.1459Z" fill="white"/>
<path d="M252.84 73.3165C250.134 71.9441 248.006 69.6573 246.834 66.8644C245.663 64.0715 245.526 60.9545 246.447 58.0699C246.635 57.4869 247.553 57.7514 247.364 58.3352C246.501 61.0197 246.63 63.9232 247.726 66.5217C248.821 69.1202 250.813 71.2425 253.34 72.5056C253.889 72.7807 253.386 73.5901 252.84 73.3165Z" fill="white"/>
<path d="M250.797 99.3691C256.715 97.5054 261.71 93.486 264.788 88.1125C265.093 87.5799 265.906 88.0791 265.601 88.6112C262.388 94.197 257.181 98.3692 251.018 100.295C250.431 100.478 250.213 99.5513 250.797 99.3691Z" fill="white"/>
<path d="M267.948 50.0413C268.884 50.7898 269.992 51.2949 271.172 51.511C272.352 51.7271 273.568 51.6476 274.709 51.2795C275.294 51.089 275.512 52.0163 274.931 52.2055C273.668 52.6063 272.325 52.6925 271.021 52.4566C269.716 52.2208 268.49 51.6699 267.448 50.8523C267.344 50.7834 267.269 50.6774 267.24 50.5558C267.211 50.4341 267.229 50.306 267.292 50.1975C267.358 50.0904 267.465 50.014 267.588 49.9847C267.711 49.9555 267.84 49.9758 267.948 50.0413Z" fill="white"/>
<path d="M334.811 88.3108C334.449 88.4401 334.087 88.5694 333.723 88.7065C328.868 90.4701 324.165 92.6241 319.659 95.1472C319.308 95.3368 318.954 95.5342 318.609 95.7334C307.82 101.928 298.277 110.065 290.467 119.733C287.363 123.583 284.556 127.663 282.073 131.937C278.643 137.841 275.396 144.514 270.359 148.816C269.838 149.271 269.29 149.693 268.717 150.08L234.35 141.971C234.281 141.913 234.21 141.863 234.141 141.806L232.754 141.544C232.867 141.315 232.988 141.08 233.101 140.85C233.166 140.717 233.238 140.585 233.303 140.452C233.349 140.364 233.395 140.276 233.431 140.193C233.446 140.164 233.461 140.134 233.474 140.113C233.511 140.03 233.553 139.958 233.587 139.883C234.264 138.565 234.952 137.25 235.65 135.936C235.652 135.928 235.652 135.928 235.661 135.922C241.005 125.93 247.233 116.294 254.729 107.907C254.955 107.655 255.182 107.395 255.423 107.146C258.823 103.385 262.526 99.9063 266.494 96.7461C268.673 95.0227 270.937 93.4103 273.279 91.9152C279.338 88.0638 285.967 85.1866 292.923 83.3891C306.789 79.808 321.649 80.6889 333.882 87.7613C334.194 87.9425 334.5 88.1219 334.811 88.3108Z" fill="#F0F0F0"/>
<path d="M334.635 88.7278C316.717 88.0791 299.05 93.0765 284.142 103.01C280.962 105.158 277.923 107.613 275.555 110.653C273.271 113.634 271.828 117.171 271.378 120.896C270.888 124.36 270.79 127.961 269.464 131.246C268.066 134.71 265.23 137.144 261.759 138.434C257.513 140.013 252.951 139.976 248.491 139.785C243.538 139.574 238.398 139.276 233.744 141.293C233.18 141.538 232.833 140.651 233.396 140.407C241.493 136.896 250.455 140.149 258.84 138.3C262.753 137.438 266.428 135.394 268.228 131.681C269.801 128.435 269.906 124.722 270.372 121.209C270.861 117.521 271.932 114.118 274.082 111.043C276.282 107.897 279.231 105.318 282.343 103.099C289.437 98.1191 297.272 94.2823 305.561 91.7293C315.005 88.7632 324.888 87.4299 334.783 87.7872C335.395 87.8095 335.243 88.75 334.635 88.7278Z" fill="white"/>
<path d="M288.751 99.5294C287.419 96.8091 287.1 93.7053 287.851 90.7723C288.602 87.8392 290.375 85.2679 292.852 83.5176C293.354 83.1652 293.927 83.9271 293.424 84.28C291.114 85.9057 289.464 88.301 288.77 91.0337C288.076 93.7664 288.384 96.6564 289.64 99.1821C289.912 99.7313 289.021 100.075 288.751 99.5294Z" fill="white"/>
<path d="M271.392 119.106C277.242 121.171 283.658 120.961 289.36 118.518C289.925 118.276 290.272 119.162 289.708 119.405C283.77 121.935 277.093 122.14 271.01 119.979C270.43 119.772 270.816 118.901 271.392 119.106Z" fill="white"/>
<path d="M314.871 90.0184C315.166 91.178 315.746 92.2463 316.557 93.1274C317.369 94.0085 318.388 94.6747 319.521 95.0662C320.103 95.2652 319.717 96.1363 319.139 95.9386C317.888 95.5002 316.764 94.7631 315.865 93.7916C314.966 92.8202 314.32 91.6439 313.982 90.3657C313.94 90.2479 313.944 90.1186 313.994 90.004C314.045 89.8894 314.137 89.7982 314.252 89.7489C314.37 89.7035 314.501 89.7063 314.617 89.7568C314.733 89.8073 314.824 89.9013 314.871 90.0184Z" fill="white"/>
<path d="M36.765 262.097C17.0904 253.059 0.944793 233.999 0.492188 212.403C19.1263 226.773 42.2572 234.108 65.7922 233.109C74.8673 232.691 84.9173 231.283 92.2032 236.695C96.7367 240.062 99.2657 245.583 100.174 251.147C101.082 256.71 100.547 262.396 100.01 268.007L100.537 269.312C79.0043 271.661 56.4397 271.134 36.765 262.097Z" fill="#F0F0F0"/>
<path d="M0.939971 212.334C10.069 227.721 23.8283 239.85 40.2635 246.996C43.7939 248.506 47.507 249.73 51.3514 250.075C55.1013 250.383 58.8653 249.683 62.2524 248.049C65.4412 246.589 68.5334 244.728 72.0226 244.066C75.7004 243.368 79.2865 244.434 82.25 246.65C85.8759 249.361 88.3085 253.21 90.5564 257.056C93.0521 261.327 95.5766 265.802 99.7929 268.618C100.304 268.959 99.7429 269.729 99.2328 269.389C91.8972 264.489 89.8021 255.211 83.7136 249.172C80.8726 246.355 77.1628 244.373 73.0572 244.868C69.4671 245.301 66.2767 247.218 63.0608 248.724C59.684 250.306 56.233 251.245 52.476 251.101C48.6328 250.954 44.8639 249.871 41.3103 248.458C33.276 245.194 25.8064 240.691 19.175 235.113C11.5712 228.789 5.10842 221.215 0.0661154 212.718C-0.245773 212.191 0.630143 211.811 0.939971 212.334Z" fill="white"/>
<path d="M34.8361 245.005C33.2594 247.592 30.8119 249.536 27.9306 250.489C25.0493 251.443 21.922 251.344 19.107 250.21C18.5382 249.979 18.872 249.087 19.4415 249.319C22.0608 250.379 24.974 250.471 27.6552 249.577C30.3364 248.684 32.609 246.864 34.0629 244.447C34.3794 243.922 35.1508 244.483 34.8361 245.005Z" fill="white"/>
<path d="M60.7328 249.001C59.316 242.977 55.674 237.706 50.533 234.24C50.0234 233.897 50.584 233.126 51.0931 233.469C56.4362 237.085 60.215 242.578 61.6756 248.851C61.8144 249.449 60.8709 249.596 60.7328 249.001Z" fill="white"/>
<path d="M12.6992 228.22C13.5184 227.346 14.1071 226.283 14.4123 225.126C14.7175 223.969 14.7298 222.754 14.448 221.591C14.3016 220.995 15.2453 220.849 15.3907 221.441C15.6961 222.727 15.6809 224.068 15.3465 225.348C15.0121 226.627 14.3687 227.805 13.4724 228.779C13.3956 228.878 13.284 228.944 13.1601 228.963C13.0363 228.983 12.9096 228.955 12.8058 228.885C12.7038 228.81 12.6354 228.699 12.6154 228.574C12.5954 228.45 12.6255 228.323 12.6992 228.22Z" fill="white"/>
<path d="M56.0188 164.627C56.1208 164.996 56.2228 165.366 56.3323 165.738C57.7292 170.699 59.528 175.539 61.7108 180.209C61.8739 180.573 62.0445 180.939 62.2177 181.297C67.597 192.493 75.0141 202.596 84.0919 211.092C87.7073 214.469 91.5751 217.568 95.6619 220.36C101.306 224.216 107.734 227.949 111.655 233.282C112.071 233.834 112.452 234.411 112.795 235.01L102.091 268.569C102.028 268.633 101.973 268.7 101.91 268.765L101.544 270.124C101.324 269.995 101.097 269.856 100.876 269.727C100.748 269.652 100.622 269.57 100.494 269.496C100.409 269.444 100.324 269.391 100.244 269.349C100.216 269.332 100.188 269.314 100.167 269.3C100.088 269.257 100.018 269.21 99.9462 269.17C98.6792 268.397 97.4155 267.614 96.155 266.821C96.1473 266.819 96.1473 266.819 96.142 266.809C86.553 260.741 77.3878 253.821 69.5673 245.733C69.3321 245.49 69.0891 245.245 68.8588 244.986C65.3539 241.321 62.1553 237.377 59.2949 233.192C57.7361 230.896 56.2947 228.523 54.9765 226.081C51.5827 219.766 49.2062 212.957 47.934 205.906C45.4001 191.848 47.4031 177.138 55.3991 165.509C55.6039 165.212 55.8063 164.922 56.0188 164.627Z" fill="#F0F0F0"/>
<path d="M56.4244 164.838C54.4226 182.605 58.0858 200.55 66.8937 216.123C68.801 219.448 71.0261 222.655 73.8874 225.238C76.6959 227.735 80.1237 229.436 83.8145 230.165C87.2421 230.914 90.8352 231.284 94.0207 232.85C97.3783 234.501 99.5981 237.505 100.626 241.054C101.884 245.395 101.503 249.929 100.976 254.349C100.39 259.257 99.7036 264.346 101.37 269.126C101.572 269.705 100.659 269.983 100.457 269.405C97.5582 261.089 101.487 252.423 100.272 243.946C99.7049 239.991 97.939 236.182 94.3622 234.112C91.2344 232.302 87.5296 231.917 84.0524 231.189C80.4014 230.425 77.0788 229.103 74.1659 226.733C71.1862 224.308 68.8307 221.18 66.8465 217.919C62.4023 210.489 59.1573 202.409 57.2302 193.974C54.9774 184.36 54.3905 174.432 55.4949 164.62C55.5635 164.013 56.4925 164.235 56.4244 164.838Z" fill="white"/>
<path d="M63.7577 211.274C60.9369 212.393 57.8091 212.476 54.9328 211.507C52.0566 210.539 49.6192 208.583 48.0559 205.988C47.7414 205.461 48.5466 204.949 48.8615 205.476C50.3127 207.895 52.5833 209.718 55.2636 210.614C57.9438 211.51 60.857 211.422 63.4775 210.364C64.0472 210.135 64.3242 211.047 63.7577 211.274Z" fill="white"/>
<path d="M82.022 230.013C84.5284 224.352 84.803 217.957 82.7909 212.103C82.5911 211.524 83.504 211.245 83.7036 211.824C85.786 217.92 85.4867 224.574 82.8655 230.459C82.6153 231.02 81.7732 230.571 82.022 230.013Z" fill="white"/>
<path d="M56.2195 184.585C57.4014 184.379 58.5134 183.883 59.4558 183.142C60.3981 182.402 61.1412 181.439 61.6184 180.342C61.8613 179.778 62.7032 180.227 62.4619 180.787C61.929 181.998 61.107 183.06 60.0677 183.88C59.0284 184.701 57.8034 185.255 56.4997 185.495C56.3787 185.528 56.2497 185.513 56.1389 185.455C56.0281 185.396 55.9439 185.298 55.9032 185.179C55.8668 185.059 55.8795 184.929 55.9387 184.817C55.9979 184.706 56.0988 184.622 56.2195 184.585Z" fill="white"/>
<path d="M82.0651 142.756C64.6799 125.69 57.3373 107.886 61.3891 92.6237C66.5889 73.0381 89.689 59.4964 124.766 55.4707L124.896 56.5942C90.3068 60.5636 67.5591 73.8014 62.4853 92.913C58.542 107.766 65.7781 125.181 82.8606 141.95L82.0651 142.756Z" fill="#F0F0F0"/>
<path d="M249.803 203.335C228.105 203.335 204.527 200.12 181.107 193.937C152.145 186.292 125.59 174.751 104.312 160.564L104.943 159.624C126.117 173.743 152.555 185.23 181.397 192.844C207.461 199.725 233.721 202.913 257.327 202.072L257.368 203.201C254.875 203.291 252.354 203.335 249.803 203.335Z" fill="#F0F0F0"/>
<path d="M299.58 196.224L299.217 195.153C318.622 188.61 330.76 178.071 334.317 164.674C338.839 147.642 329.015 127.878 306.657 109.022C284.184 90.07 251.778 74.3448 215.406 64.7435L215.696 63.6504C252.227 73.294 284.791 89.1006 307.389 108.159C330.1 127.312 340.053 147.486 335.413 164.963C331.754 178.745 319.363 189.555 299.58 196.224Z" fill="#F0F0F0"/>
<path d="M121.39 203.807C78.7555 184.952 45.9023 160.489 28.8828 134.925L29.8273 134.3C46.7291 159.687 79.4099 184.004 121.85 202.774L121.39 203.807Z" fill="#F0F0F0"/>
<path d="M271.293 236.473C266.895 236.473 262.423 236.375 257.875 236.179L257.924 235.049C291.862 236.515 321.807 232.465 344.526 223.335L344.95 224.384C325.132 232.347 299.871 236.473 271.293 236.473Z" fill="#F0F0F0"/>
<path d="M246.553 56.4847C239.507 54.1969 232.258 52.0668 225.01 50.1533C183.299 39.1422 142.297 35.2328 106.434 38.8497L106.32 37.7245C142.317 34.0958 183.459 38.0146 225.3 49.0602C232.569 50.9792 239.838 53.1154 246.904 55.4098L246.553 56.4847Z" fill="#F0F0F0"/>
<path d="M55.4205 144.452C38.0354 127.386 30.6928 109.582 34.7446 94.32C39.9444 74.7344 63.0444 61.1927 98.1217 57.167L98.2512 58.2905C63.6623 62.2598 40.9146 75.4977 35.8408 94.6093C31.8975 109.462 39.1336 126.877 56.2161 143.646L55.4205 144.452Z" fill="#F0F0F0"/>
<path d="M223.155 205.03C201.457 205.03 177.878 201.815 154.458 195.632C125.496 187.987 98.9413 176.447 77.6641 162.259L78.2941 161.319C99.4689 175.438 125.906 186.926 154.748 194.539C180.813 201.42 207.072 204.609 230.679 203.767L230.72 204.897C228.227 204.986 225.705 205.031 223.155 205.03Z" fill="#F0F0F0"/>
<path d="M272.932 197.92L272.568 196.849C291.974 190.307 304.111 179.768 307.669 166.37C312.19 149.338 302.367 129.574 280.008 110.718C257.535 91.7663 225.129 76.0411 188.758 66.4398L189.048 65.3467C225.578 74.9903 258.142 90.7968 280.74 109.855C303.452 129.008 313.405 149.182 308.765 166.659C305.106 180.441 292.715 191.251 272.932 197.92Z" fill="#F0F0F0"/>
<path d="M94.7417 205.503C52.1071 186.648 19.2538 162.185 2.23438 136.622L3.17889 135.996C20.0807 161.383 52.7615 185.701 95.2013 204.47L94.7417 205.503Z" fill="#F0F0F0"/>
<path d="M244.645 238.169C240.247 238.169 235.774 238.071 231.227 237.875L231.275 236.746C265.214 238.211 295.159 234.161 317.878 225.031L318.302 226.08C298.483 234.043 273.223 238.169 244.645 238.169Z" fill="#F0F0F0"/>
<path d="M219.905 58.181C212.858 55.8932 205.61 53.7631 198.362 51.8496C156.651 40.8385 115.649 36.9291 79.7859 40.546L79.6719 39.4208C115.668 35.7921 156.811 39.7109 198.652 50.7565C205.921 52.6755 213.189 54.8117 220.256 57.1061L219.905 58.181Z" fill="#F0F0F0"/>
<path d="M107.266 142.134C104.937 142.136 102.703 143.06 101.056 144.703C99.4083 146.346 98.4817 148.573 98.4791 150.896C95.1381 175.426 94.0224 200.205 95.1453 224.935C95.2121 226.513 95.286 227.958 95.3718 229.351C95.4964 231.652 95.6547 234.081 95.8421 236.572C95.9498 238.042 96.0633 239.516 96.1876 240.985C96.3958 243.378 96.6244 245.809 96.8677 248.211C97.0205 249.678 97.1792 251.153 97.3488 252.621C97.6747 255.506 98.0434 258.463 98.4766 261.661C98.4723 263.99 99.3958 266.226 101.044 267.876C102.692 269.526 104.931 270.456 107.266 270.462H254.668C256.997 270.459 259.231 269.535 260.878 267.892C262.526 266.249 263.452 264.022 263.455 261.699L263.462 261.638C264.118 258.656 264.73 255.616 265.279 252.603C265.573 251.015 265.827 249.572 266.055 248.193C266.469 245.682 266.837 243.252 267.148 240.97C267.361 239.438 267.553 237.955 267.72 236.559C267.994 234.276 268.243 231.915 268.479 229.342C268.608 227.944 268.727 226.5 268.842 224.927V224.927C270.644 200.14 268.832 175.225 263.462 150.957L263.455 150.896C263.452 148.573 262.526 146.346 260.878 144.703C259.231 143.06 256.997 142.136 254.667 142.134L107.266 142.134Z" fill="#3C3A50"/>
<path d="M186.689 179.647C154.75 179.647 120.907 176.753 76.6146 170.963H76.6099C74.3136 170.96 72.0994 170.112 70.3916 168.581C68.6838 167.05 67.6027 164.945 67.3555 162.669C67.3152 162.326 67.2957 161.982 67.2971 161.637V135.067C67.2961 135.011 67.2987 134.954 67.3048 134.897C67.3547 132.456 68.3605 130.131 70.1071 128.42C71.8538 126.708 74.2027 125.746 76.6514 125.74C153.711 115.292 200.523 115.293 285.315 125.742H285.319C287.767 125.758 290.111 126.728 291.85 128.444C293.59 130.161 294.587 132.488 294.629 134.928C294.634 134.974 294.636 135.021 294.635 135.067V161.637C294.636 161.983 294.617 162.328 294.576 162.671C294.325 164.954 293.237 167.063 291.522 168.594C289.806 170.125 287.583 170.969 285.281 170.965C248.646 176.752 218.619 179.647 186.689 179.647Z" fill="#0080CA"/>
<path d="M191.814 198.1H172.436C169.969 198.097 167.605 197.119 165.861 195.38C164.117 193.641 163.136 191.283 163.133 188.824V118.621C163.136 116.162 164.117 113.804 165.861 112.065C167.605 110.326 169.969 109.348 172.436 109.345H191.814C194.28 109.347 196.645 110.326 198.389 112.065C200.133 113.804 201.114 116.162 201.117 118.621V188.824C201.114 191.283 200.133 193.641 198.389 195.38C196.645 197.119 194.28 198.097 191.814 198.1Z" fill="#3C3A50"/>
<path d="M235.808 95.9118C235.667 94.5957 235.42 93.2931 235.069 92.0168C234.689 90.738 234.209 89.4912 233.632 88.288C231.565 83.8646 228.078 80.2544 223.723 78.0282C218.318 75.3749 212.135 75.1577 206.323 76.4361C201.438 77.5273 196.85 79.669 192.881 82.7115C190.823 84.2576 188.943 86.0258 187.275 87.984C185.553 90.0442 182.35 95.7047 182.119 96.2287C180.308 92.1286 177.709 88.4219 174.47 85.3175C170.704 81.7534 166.209 79.0446 161.294 77.3773C158.681 76.4994 155.968 75.9495 153.218 75.7405C150.309 75.4993 147.379 75.7541 144.556 76.4941C139.484 77.9105 135.097 81.1084 132.204 85.4977C129.448 89.5771 128.094 94.4386 128.346 99.3511C128.486 101.831 129.022 104.273 129.935 106.585C130.424 107.836 131.005 109.05 131.671 110.217C132.361 111.369 133.133 112.471 133.98 113.515C137.303 117.582 141.78 120.554 146.825 122.044C152.21 123.704 157.923 123.758 163.462 122.979C169.149 122.178 174.623 120.343 179.98 118.332C180.694 118.064 181.406 117.788 182.118 117.515C186.88 119.341 191.683 121.103 196.667 122.221C202.275 123.572 208.095 123.805 213.793 122.906C219.105 122.037 224.043 119.631 227.996 115.989C231.653 112.557 234.212 108.125 235.353 103.248C235.916 100.845 236.07 98.3653 235.808 95.9118ZM161.983 117.517C158.909 117.91 155.798 117.928 152.72 117.571C150.514 117.252 148.352 116.679 146.279 115.862C141.392 113.832 137.497 109.976 135.427 105.117C134.808 103.586 134.367 101.989 134.113 100.357C133.951 98.9053 133.95 97.4401 134.112 95.9883C134.353 94.461 134.766 92.9656 135.344 91.5306C135.968 90.135 136.743 88.8114 137.656 87.5835C138.541 86.4848 139.541 85.4833 140.639 84.5961C141.679 83.8285 142.799 83.1741 143.98 82.644C145.388 82.0953 146.854 81.7044 148.349 81.4784C150.375 81.2549 152.419 81.2708 154.441 81.5259C156.847 81.8963 159.201 82.5435 161.458 83.4545C163.858 84.4931 166.126 85.8117 168.214 87.3826C170.147 88.9093 171.898 90.6508 173.435 92.5733C174.957 94.5916 176.233 96.7829 177.237 99.1012C178.212 101.52 178.898 104.045 179.278 106.624L179.283 106.662C179.134 107.958 179.06 109.261 179.06 110.565C179.061 111.068 179.083 111.57 179.109 112.071C178.869 112.301 178.67 112.569 178.518 112.864C174.569 114.409 170.521 115.689 166.401 116.696C164.94 117.032 163.468 117.306 161.983 117.517ZM230.136 100.357C229.882 101.989 229.441 103.586 228.822 105.118C226.762 109.983 222.863 113.843 217.97 115.862C215.897 116.679 213.735 117.252 211.529 117.571C208.445 117.929 205.329 117.91 202.25 117.515C196.78 116.735 191.504 115.014 186.343 113.093C186.131 113.013 185.92 112.93 185.707 112.85C185.564 112.56 185.373 112.295 185.142 112.066C185.233 110.246 185.177 108.421 184.973 106.61C185.354 104.036 186.039 101.515 187.012 99.1012C188.016 96.783 189.292 94.5918 190.814 92.5736C192.351 90.651 194.102 88.9094 196.035 87.3826C198.124 85.8117 200.392 84.4931 202.792 83.4545C205.048 82.5435 207.403 81.8963 209.808 81.5259C211.83 81.2708 213.875 81.2549 215.9 81.4784C217.395 81.7044 218.861 82.0953 220.27 82.644C221.45 83.1741 222.57 83.8286 223.611 84.5963C224.709 85.4835 225.709 86.4849 226.593 87.5836C227.506 88.8115 228.281 90.1351 228.906 91.5307C229.483 92.9656 229.896 94.461 230.137 95.9883C230.299 97.44 230.299 98.9052 230.136 100.357Z" fill="#3C3A50"/>
<path d="M123.14 201.21C125.018 201.21 126.541 199.691 126.541 197.818C126.541 195.944 125.018 194.426 123.14 194.426C121.261 194.426 119.738 195.944 119.738 197.818C119.738 199.691 121.261 201.21 123.14 201.21Z" fill="#0080CA"/>
<path d="M147.519 192.73C149.397 192.73 150.92 191.212 150.92 189.338C150.92 187.465 149.397 185.946 147.519 185.946C145.64 185.946 144.117 187.465 144.117 189.338C144.117 191.212 145.64 192.73 147.519 192.73Z" fill="#0080CA"/>
<path d="M136.745 219.299C138.624 219.299 140.147 217.781 140.147 215.908C140.147 214.034 138.624 212.516 136.745 212.516C134.867 212.516 133.344 214.034 133.344 215.908C133.344 217.781 134.867 219.299 136.745 219.299Z" fill="#0080CA"/>
<path d="M237.659 201.21C239.538 201.21 241.061 199.691 241.061 197.818C241.061 195.944 239.538 194.426 237.659 194.426C235.781 194.426 234.258 195.944 234.258 197.818C234.258 199.691 235.781 201.21 237.659 201.21Z" fill="#0080CA"/>
<path d="M213.284 192.73C215.163 192.73 216.686 191.212 216.686 189.338C216.686 187.465 215.163 185.946 213.284 185.946C211.406 185.946 209.883 187.465 209.883 189.338C209.883 191.212 211.406 192.73 213.284 192.73Z" fill="#0080CA"/>
<path d="M224.054 219.299C225.933 219.299 227.455 217.781 227.455 215.908C227.455 214.034 225.933 212.516 224.054 212.516C222.175 212.516 220.652 214.034 220.652 215.908C220.652 217.781 222.175 219.299 224.054 219.299Z" fill="#0080CA"/>
<path d="M240.495 260.568C242.374 260.568 243.897 259.049 243.897 257.176C243.897 255.303 242.374 253.784 240.495 253.784C238.617 253.784 237.094 255.303 237.094 257.176C237.094 259.049 238.617 260.568 240.495 260.568Z" fill="#0080CA"/>
<path d="M248.995 236.259C250.874 236.259 252.397 234.741 252.397 232.867C252.397 230.994 250.874 229.476 248.995 229.476C247.117 229.476 245.594 230.994 245.594 232.867C245.594 234.741 247.117 236.259 248.995 236.259Z" fill="#0080CA"/>
<path d="M222.351 247.001C224.229 247.001 225.752 245.482 225.752 243.609C225.752 241.735 224.229 240.217 222.351 240.217C220.472 240.217 218.949 241.735 218.949 243.609C218.949 245.482 220.472 247.001 222.351 247.001Z" fill="#0080CA"/>
<path d="M142.984 260.568C144.862 260.568 146.385 259.049 146.385 257.176C146.385 255.303 144.862 253.784 142.984 253.784C141.105 253.784 139.582 255.303 139.582 257.176C139.582 259.049 141.105 260.568 142.984 260.568Z" fill="#0080CA"/>
<path d="M151.488 236.259C153.366 236.259 154.889 234.741 154.889 232.867C154.889 230.994 153.366 229.476 151.488 229.476C149.609 229.476 148.086 230.994 148.086 232.867C148.086 234.741 149.609 236.259 151.488 236.259Z" fill="#0080CA"/>
<path d="M124.843 247.001C126.722 247.001 128.245 245.482 128.245 243.609C128.245 241.735 126.722 240.217 124.843 240.217C122.964 240.217 121.441 241.735 121.441 243.609C121.441 245.482 122.964 247.001 124.843 247.001Z" fill="#0080CA"/>
<path d="M222.575 21.0079C223.863 21.5441 225.268 21.7404 226.654 21.578C228.04 21.4156 229.361 20.9 230.49 20.0807C233.366 17.9413 234.445 14.2068 235.348 10.7441L238.016 0.5L233.51 3.22838C230.268 5.19011 226.953 7.21683 224.614 10.1951C222.274 13.1733 221.091 17.3468 222.632 20.8028" fill="#F2F2F2"/>
<path d="M102.043 108.513C102.913 107.424 103.487 106.131 103.71 104.757C103.933 103.383 103.797 101.975 103.316 100.668C102.041 97.3233 98.7341 95.2662 95.6418 93.4516L86.4922 88.0869L87.8894 93.1562C88.8938 96.8018 89.9405 100.536 92.1722 103.596C94.404 106.655 98.1052 108.933 101.861 108.401" fill="#F2F2F2"/>
<path d="M316.91 266.237C317.78 265.149 318.354 263.855 318.577 262.481C318.8 261.107 318.665 259.699 318.184 258.393C316.908 255.048 313.601 252.991 310.509 251.176L301.359 245.812L302.757 250.881C303.761 254.526 304.808 258.261 307.039 261.32C309.271 264.38 312.972 266.658 316.728 266.126" fill="#F2F2F2"/>
<path d="M144.117 66.0979C146.622 66.0979 148.653 64.073 148.653 61.5753C148.653 59.0776 146.622 57.0527 144.117 57.0527C141.613 57.0527 139.582 59.0776 139.582 61.5753C139.582 64.073 141.613 66.0979 144.117 66.0979Z" fill="#D12D26"/>
<path d="M23.3635 199.514C25.8684 199.514 27.899 197.489 27.899 194.991C27.899 192.494 25.8684 190.469 23.3635 190.469C20.8587 190.469 18.8281 192.494 18.8281 194.991C18.8281 197.489 20.8587 199.514 23.3635 199.514Z" fill="#D12D26"/>
<path d="M335.168 162.768C337.673 162.768 339.704 160.743 339.704 158.245C339.704 155.747 337.673 153.723 335.168 153.723C332.663 153.723 330.633 155.747 330.633 158.245C330.633 160.743 332.663 162.768 335.168 162.768Z" fill="#D12D26"/>
<path d="M18.8245 85.884C21.3293 85.884 23.3599 83.8592 23.3599 81.3614C23.3599 78.8637 21.3293 76.8389 18.8245 76.8389C16.3196 76.8389 14.2891 78.8637 14.2891 81.3614C14.2891 83.8592 16.3196 85.884 18.8245 85.884Z" fill="#E6E6E6"/>
<path d="M299.457 214.778C301.962 214.778 303.993 212.753 303.993 210.255C303.993 207.757 301.962 205.732 299.457 205.732C296.952 205.732 294.922 207.757 294.922 210.255C294.922 212.753 296.952 214.778 299.457 214.778Z" fill="#E6E6E6"/>
<path d="M308.524 77.4045C311.029 77.4045 313.059 75.3797 313.059 72.8819C313.059 70.3842 311.029 68.3594 308.524 68.3594C306.019 68.3594 303.988 70.3842 303.988 72.8819C303.988 75.3797 306.019 77.4045 308.524 77.4045Z" fill="#E6E6E6"/>
<path d="M109.662 149.334C109.27 149.952 108.319 149.863 107.785 149.476C107.044 148.939 107.284 147.906 107.794 147.295C109.416 145.353 112.098 147.403 112.46 149.331C112.595 150.271 112.45 151.23 112.043 152.088C111.636 152.947 110.985 153.667 110.172 154.161C108.321 155.254 105.918 154.706 104.327 153.397C101.008 150.667 101.912 145.202 105.598 143.227C107.95 141.966 110.924 142.52 113.242 143.575C115.851 144.764 118.094 146.585 120.506 148.104C125.799 151.408 131.787 153.447 138.001 154.061C139.089 154.172 139.081 152.475 138.001 152.365C134.558 152.01 131.177 151.198 127.949 149.951C124.754 148.66 121.723 147.001 118.916 145.007C116.075 143.066 113.108 141.18 109.592 140.859C108.174 140.694 106.737 140.906 105.427 141.474C104.118 142.043 102.982 142.947 102.137 144.094C101.384 145.121 100.881 146.308 100.665 147.561C100.45 148.815 100.529 150.101 100.895 151.319C101.337 152.593 102.109 153.727 103.134 154.606C104.158 155.485 105.397 156.079 106.726 156.325C108.005 156.566 109.328 156.403 110.51 155.858C111.692 155.314 112.673 154.415 113.319 153.288C114.612 151.056 114.57 148.059 112.616 146.209C112.056 145.641 111.355 145.232 110.584 145.023C109.813 144.814 109.001 144.813 108.229 145.019C107.519 145.259 106.893 145.699 106.43 146.288C105.966 146.876 105.685 147.586 105.62 148.331C105.431 151.228 109.554 152.676 111.13 150.19C111.717 149.265 110.246 148.413 109.662 149.334Z" fill="#3C3A50"/>
<path d="M255.106 149.334C255.498 149.952 256.448 149.863 256.982 149.476C257.723 148.939 257.483 147.906 256.973 147.295C255.351 145.353 252.669 147.403 252.307 149.331C252.173 150.271 252.318 151.23 252.725 152.088C253.131 152.947 253.782 153.667 254.596 154.161C256.446 155.254 258.85 154.706 260.441 153.397C263.759 150.667 262.856 145.202 259.169 143.227C256.817 141.966 253.843 142.52 251.525 143.575C248.917 144.764 246.674 146.585 244.261 148.104C238.968 151.408 232.98 153.447 226.766 154.061C225.678 154.172 225.686 152.475 226.766 152.365C230.21 152.01 233.591 151.198 236.819 149.951C240.013 148.66 243.045 147.001 245.852 145.007C248.692 143.066 251.66 141.18 255.175 140.859C256.593 140.694 258.031 140.906 259.34 141.474C260.65 142.043 261.785 142.947 262.631 144.094C263.383 145.121 263.886 146.308 264.102 147.561C264.317 148.815 264.239 150.101 263.872 151.319C263.43 152.593 262.658 153.727 261.634 154.606C260.61 155.485 259.37 156.079 258.041 156.325C256.762 156.566 255.439 156.403 254.258 155.858C253.076 155.314 252.094 154.415 251.449 153.288C250.155 151.056 250.197 148.059 252.151 146.209C252.711 145.641 253.413 145.232 254.183 145.023C254.954 144.814 255.767 144.813 256.538 145.019C257.249 145.259 257.874 145.699 258.338 146.288C258.801 146.876 259.083 147.586 259.148 148.331C259.336 151.228 255.213 152.676 253.637 150.19C253.051 149.265 254.522 148.413 255.106 149.334Z" fill="#3C3A50"/>
<path d="M50.4768 21.0566L48.2302 23.8672L40.2852 19.1807L42.5313 16.3701L50.4768 21.0566Z" fill="#E4E4E4"/>
<path d="M58.7684 33.1318L60.7525 36.0846L52.4059 40.2243L50.4219 37.2721L58.7684 33.1318Z" fill="#E4E4E4"/>
<path d="M67.407 20.2959L71.3719 20.436L70.9772 28.7087L67.0117 28.5691L67.407 20.2959Z" fill="#E4E4E4"/>
<path d="M331.106 194.045L328.859 196.855L320.914 192.169L323.161 189.358L331.106 194.045Z" fill="#E4E4E4"/>
<path d="M339.393 206.12L341.377 209.073L333.031 213.213L331.047 210.26L339.393 206.12Z" fill="#E4E4E4"/>
<path d="M348.036 193.283L352.001 193.423L351.606 201.696L347.641 201.556L348.036 193.283Z" fill="#E4E4E4"/>
</g>
<defs>
<clipPath id="clip0_916_19135">
<rect width="352" height="270" fill="white" transform="translate(0 0.5)"/>
</clipPath>
</defs>
</svg>
