<svg width="24" height="24" viewBox="0 0 24 24" fill="none" xmlns="http://www.w3.org/2000/svg">
<path d="M8.08 24H7.6C7.52 24 7.36 23.92 7.28 23.84C7.2 23.76 7.2 23.68 7.2 23.52L8.72 14.4L4.56 13.92L1.68 16.64C1.6 16.72 1.52 16.8 1.44 16.8H0.4C0.24 16.8 0.16 16.72 0.08 16.64C0 16.56 0 16.4 0 16.24L1.6 12.32V11.68L0 7.76C0 7.6 0 7.52 0.08 7.36C0.16 7.28 0.24 7.2 0.4 7.2H1.44C1.52 7.2 1.6 7.2 1.68 7.28L4.56 10L8.72 9.6L7.2 0.48C7.2 0.4 7.2 0.24 7.28 0.16C7.36 0.08 7.52 0 7.6 0H8.08C8.88 0 9.6 0.4 10 1.04L15.76 8.8C16.8 8.8 21.68 8.96 23.36 10.64C23.76 11.04 24 11.52 24 12C24 12.48 23.76 12.96 23.36 13.36C21.68 15.04 16.88 15.12 15.76 15.2L10 23.04C9.6 23.6 8.88 24 8.08 24ZM8.08 23.2C8.64 23.2 9.12 22.96 9.36 22.56L15.28 14.56C15.36 14.48 15.52 14.4 15.6 14.4C17.12 14.4 21.52 14.16 22.8 12.8C23.04 12.56 23.2 12.24 23.2 12C23.2 11.76 23.04 11.44 22.8 11.2C21.44 9.84 17.12 9.6 15.6 9.6C15.52 9.6 15.36 9.52 15.28 9.44L9.36 1.44C9.04 1.04 8.56 0.8 8.08 0.8L9.6 9.92C9.6 10 9.6 10.16 9.52 10.24C9.44 10.32 9.36 10.4 9.2 10.4L4.4 10.88C4.32 10.88 4.16 10.88 4.08 10.8L1.28 8H0.96L2.4 11.44C2.4 11.52 2.4 11.52 2.4 11.6V12.4C2.4 12.48 2.4 12.48 2.4 12.56L0.96 16H1.2L4.08 13.2C4.16 13.12 4.32 13.04 4.4 13.12L9.2 13.68C9.28 13.68 9.44 13.76 9.44 13.84C9.52 13.92 9.52 14 9.52 14.16L8.08 23.2Z" fill="#043962"/>
<path d="M19.5999 13.5998C19.4399 13.5998 19.2799 13.5198 19.1999 13.3598C19.1199 13.1198 19.1999 12.9598 19.4399 12.8798C19.5199 12.8798 19.9999 12.6398 19.9999 12.0798C19.9999 11.5198 19.5199 11.2798 19.4399 11.2798C19.1999 11.1998 19.1199 10.9598 19.1999 10.7998C19.2799 10.5598 19.5199 10.4798 19.6799 10.5598C19.7599 10.5598 20.7199 10.9598 20.7199 12.1598C20.7199 13.3598 19.6799 13.6798 19.6799 13.7598C19.6799 13.5998 19.6799 13.5998 19.5999 13.5998Z" fill="#043962"/>
<path d="M12.4001 3.1998H11.2001C10.9601 3.1998 10.8001 3.0398 10.8001 2.7998C10.8001 2.5598 10.9601 2.3998 11.2001 2.3998H12.4001C12.6401 2.3998 12.8001 2.2398 12.8001 1.9998C12.8001 1.7598 12.6401 1.5998 12.4001 1.5998H10.0001C9.7601 1.5998 9.6001 1.4398 9.6001 1.1998C9.6001 0.959805 9.7601 0.799805 10.0001 0.799805H12.4001C13.0401 0.799805 13.6001 1.3598 13.6001 1.9998C13.6001 2.6398 13.0401 3.1998 12.4001 3.1998Z" fill="#043962"/>
<path d="M15.5999 7.1998H13.9999C13.7599 7.1998 13.5999 7.0398 13.5999 6.7998C13.5999 6.5598 13.7599 6.3998 13.9999 6.3998H15.5999C15.8399 6.3998 15.9999 6.2398 15.9999 5.9998C15.9999 5.7598 15.8399 5.5998 15.5999 5.5998H12.7999C12.5599 5.5998 12.3999 5.4398 12.3999 5.1998C12.3999 4.9598 12.5599 4.7998 12.7999 4.7998H15.5999C16.2399 4.7998 16.7999 5.3598 16.7999 5.9998C16.7999 6.6398 16.2399 7.1998 15.5999 7.1998Z" fill="#043962"/>
<path d="M12.4001 23.1998H10.0001C9.7601 23.1998 9.6001 23.0398 9.6001 22.7998C9.6001 22.5598 9.7601 22.3998 10.0001 22.3998H12.4001C12.6401 22.3998 12.8001 22.2398 12.8001 21.9998C12.8001 21.7598 12.6401 21.5998 12.4001 21.5998H11.2001C10.9601 21.5998 10.8001 21.4398 10.8001 21.1998C10.8001 20.9598 10.9601 20.7998 11.2001 20.7998H12.4001C13.0401 20.7998 13.6001 21.3598 13.6001 21.9998C13.6001 22.6398 13.0401 23.1998 12.4001 23.1998Z" fill="#043962"/>
<path d="M15.5999 19.1998H12.7999C12.5599 19.1998 12.3999 19.0398 12.3999 18.7998C12.3999 18.5598 12.5599 18.3998 12.7999 18.3998H15.5999C15.8399 18.3998 15.9999 18.2398 15.9999 17.9998C15.9999 17.7598 15.8399 17.5998 15.5999 17.5998H13.9999C13.7599 17.5998 13.5999 17.4398 13.5999 17.1998C13.5999 16.9598 13.7599 16.7998 13.9999 16.7998H15.5999C16.2399 16.7998 16.7999 17.3598 16.7999 17.9998C16.7999 18.6398 16.2399 19.1998 15.5999 19.1998Z" fill="#043962"/>
</svg>
