<svg width="24" height="24" viewBox="0 0 24 24" fill="none" xmlns="http://www.w3.org/2000/svg">
<path d="M16.3998 24H7.5998C6.0798 24 4.7998 22.72 4.7998 21.2V2.8C4.7998 1.28 6.0798 0 7.5998 0H16.3998C17.9198 0 19.1998 1.28 19.1998 2.8V21.2C19.1998 22.72 17.9198 24 16.3998 24ZM7.5998 0.8C6.4798 0.8 5.5998 1.68 5.5998 2.8V21.2C5.5998 22.32 6.4798 23.2 7.5998 23.2H16.3998C17.5198 23.2 18.3998 22.32 18.3998 21.2V2.8C18.3998 1.68 17.5198 0.8 16.3998 0.8H7.5998Z" fill="#043962"/>
<path d="M18.7998 4.0002H5.1998C4.9598 4.0002 4.7998 3.8402 4.7998 3.6002C4.7998 3.3602 4.9598 3.2002 5.1998 3.2002H18.7998C19.0398 3.2002 19.1998 3.3602 19.1998 3.6002C19.1998 3.8402 19.0398 4.0002 18.7998 4.0002Z" fill="#043962"/>
<path d="M18.3997 20.0002H5.59971C5.35971 20.0002 5.19971 19.8402 5.19971 19.6002C5.19971 19.3602 5.35971 19.2002 5.59971 19.2002H18.3997C18.6397 19.2002 18.7997 19.3602 18.7997 19.6002C18.7997 19.8402 18.6397 20.0002 18.3997 20.0002Z" fill="#043962"/>
<path d="M13.9996 2.4001H9.99961C9.75961 2.4001 9.59961 2.2401 9.59961 2.0001C9.59961 1.7601 9.75961 1.6001 9.99961 1.6001H13.9996C14.2396 1.6001 14.3996 1.7601 14.3996 2.0001C14.3996 2.2401 14.2396 2.4001 13.9996 2.4001Z" fill="#043962"/>
<path d="M16.4 2.4001C16.16 2.4001 16 2.2401 16 2.0001C16 1.7601 16.16 1.6001 16.4 1.6001C16.64 1.6001 16.8 1.7601 16.8 2.0001C16.8 2.2401 16.64 2.4001 16.4 2.4001Z" fill="#043962"/>
<path d="M12.5654 21.0341C12.8778 21.3465 12.8778 21.8531 12.5654 22.1655C12.253 22.4779 11.7464 22.4779 11.434 22.1655C11.1216 21.8531 11.1216 21.3465 11.434 21.0341C11.7464 20.7217 12.253 20.7217 12.5654 21.0341Z" fill="#043962"/>
</svg>
