<svg width="24" height="24" viewBox="0 0 24 24" fill="none" xmlns="http://www.w3.org/2000/svg">
<path d="M15.5999 10.7999H10.7999C10.5599 10.7999 10.3999 10.6399 10.3999 10.3999V8.7999C10.3999 8.5599 10.5599 8.3999 10.7999 8.3999C11.0399 8.3999 11.1999 8.5599 11.1999 8.7999V9.9999H15.5999C15.8399 9.9999 15.9999 10.1599 15.9999 10.3999C15.9999 10.6399 15.8399 10.7999 15.5999 10.7999Z" fill="#043962"/>
<path d="M16.3999 16.4001H6.7999C6.5599 16.4001 6.3999 16.2401 6.3999 16.0001C6.3999 15.7601 6.5599 15.6001 6.7999 15.6001H16.3999C16.6399 15.6001 16.7999 15.7601 16.7999 16.0001C16.7999 16.2401 16.6399 16.4001 16.3999 16.4001Z" fill="#043962"/>
<path d="M2 16.4C1.68 16.4 1.44 16.24 1.12 16C0.24 15.12 0 12.56 0 12C0 10.48 0.56 9.28 1.68 8.24L0.88 7.44C0.8 7.36 0.8 7.2 0.8 7.04C0.88 6.88 1.04 6.8 1.2 6.8H3.92C5.84 6 8 6 9.44 6C14.64 6 18.24 8.64 18.88 9.2C22.48 9.28 23.92 11.52 23.92 12.48V14.96C23.92 15.84 22.96 16.4 22.48 16.4H21.12C20.88 16.4 20.72 16.24 20.72 16C20.72 15.76 20.88 15.6 21.12 15.6H22.48C22.64 15.6 23.12 15.36 23.12 14.96V12.48C23.12 12 22 10 18.72 10C18.64 10 18.56 10 18.48 9.92C18.48 9.92 14.8 6.8 9.44 6.8C8.08 6.8 5.92 6.8 4.08 7.6C4 7.6 4 7.6 3.92 7.6H2.16L2.56 8C2.64 8.08 2.72 8.16 2.64 8.32C2.56 8.48 2.56 8.56 2.48 8.64C1.36 9.52 0.8 10.64 0.8 12C0.8 12.72 1.04 14.8 1.68 15.44C1.84 15.6 1.92 15.6 2 15.6C2.24 15.6 2.4 15.76 2.4 16C2.4 16.24 2.24 16.4 2 16.4Z" fill="#043962"/>
<path d="M18.8 17.9999C17.28 17.9999 16 16.7199 16 15.1999C16 13.6799 17.28 12.3999 18.8 12.3999C20.32 12.3999 21.6 13.6799 21.6 15.1999C21.6 16.7199 20.32 17.9999 18.8 17.9999ZM18.8 13.1999C17.68 13.1999 16.8 14.0799 16.8 15.1999C16.8 16.3199 17.68 17.1999 18.8 17.1999C19.92 17.1999 20.8 16.3199 20.8 15.1999C20.8 14.0799 19.92 13.1999 18.8 13.1999Z" fill="#043962"/>
<path d="M4.4001 17.9999C2.8801 17.9999 1.6001 16.7199 1.6001 15.1999C1.6001 13.6799 2.8801 12.3999 4.4001 12.3999C5.9201 12.3999 7.2001 13.6799 7.2001 15.1999C7.2001 16.7199 5.9201 17.9999 4.4001 17.9999ZM4.4001 13.1999C3.2801 13.1999 2.4001 14.0799 2.4001 15.1999C2.4001 16.3199 3.2801 17.1999 4.4001 17.1999C5.5201 17.1999 6.4001 16.3199 6.4001 15.1999C6.4001 14.0799 5.5201 13.1999 4.4001 13.1999Z" fill="#043962"/>
</svg>
