<svg width="24" height="24" viewBox="0 0 24 24" fill="none" xmlns="http://www.w3.org/2000/svg">
<g clip-path="url(#clip0_300_10762)">
<path d="M10.4 16C10.32 16 10.16 16 10.08 15.92L6.07996 11.92C5.91996 11.76 5.91996 11.52 6.07996 11.36C6.23996 11.2 6.47996 11.2 6.63996 11.36L10.32 15.04L17.2 8.16004C17.36 8.00004 17.6 8.00004 17.76 8.16004C17.92 8.32004 17.92 8.56004 17.76 8.72004L10.56 15.92C10.64 16 10.48 16 10.4 16Z" fill="#043962"/>
<path d="M12.0002 24H11.9202C8.1602 22.88 1.2002 18.96 1.2002 14.56V3.44C1.2002 3.28 1.2802 3.12 1.5202 3.04L11.9202 0C12.0002 0 12.0002 0 12.0802 0L22.4802 3.04C22.6402 3.12 22.8002 3.28 22.8002 3.44V14.56C22.8002 18.96 15.8402 22.88 12.0802 24H12.0002ZM2.0002 3.76V14.56C2.0002 18.16 7.8402 21.92 12.0002 23.2C16.1602 21.92 22.0002 18.16 22.0002 14.56V3.76L12.0002 0.8L2.0002 3.76Z" fill="#043962"/>
</g>
<defs>
<clipPath id="clip0_300_10762">
<rect width="24" height="24" fill="white"/>
</clipPath>
</defs>
</svg>
