<svg width="24" height="24" viewBox="0 0 24 24" fill="none" xmlns="http://www.w3.org/2000/svg">
<g clip-path="url(#clip0_300_10789)">
<path d="M21.1034 17.1429H9.10345C7.36552 17.1429 5.71034 15.8571 5.37931 14.2286L3.3931 0.857143H0.413793C0.165517 0.857143 0 0.685714 0 0.428571C0 0.171429 0.165517 0 0.413793 0H3.72414C3.88966 0 4.13793 0.171429 4.13793 0.342857L6.2069 14.0571C6.45517 15.2571 7.77931 16.2857 9.10345 16.2857H21.1034C21.3517 16.2857 21.5172 16.4571 21.5172 16.7143C21.5172 16.9714 21.3517 17.1429 21.1034 17.1429Z" fill="#043962"/>
<path d="M20.2756 12.8573H5.79287C5.54459 12.8573 5.37907 12.6859 5.37907 12.4287C5.37907 12.1716 5.54459 12.0001 5.79287 12.0001H20.2756C20.9377 12.0001 21.848 11.6573 21.9308 10.7144L23.0894 4.28585H4.55149C4.30321 4.28585 4.1377 4.11443 4.1377 3.85728C4.1377 3.60014 4.30321 3.42871 4.55149 3.42871H23.586C23.6687 3.42871 23.8342 3.51443 23.917 3.60014C23.9998 3.68585 23.9998 3.85728 23.9998 3.943L22.7584 10.8859C22.5929 12.0001 21.5998 12.8573 20.2756 12.8573Z" fill="#043962"/>
<path d="M8.68952 18.8571C7.5309 18.8571 6.62055 19.8 6.62055 21C6.62055 22.2 7.5309 23.1429 8.68952 23.1429C9.84814 23.1429 10.7585 22.2 10.7585 21C10.7585 19.8 9.84814 18.8571 8.68952 18.8571ZM8.68952 24C7.11711 24 5.79297 22.6286 5.79297 21C5.79297 19.3714 7.11711 18 8.68952 18C10.2619 18 11.5861 19.3714 11.5861 21C11.5861 22.6286 10.2619 24 8.68952 24Z" fill="#043962"/>
<path d="M18.6207 18.8571C17.4621 18.8571 16.5517 19.8 16.5517 21C16.5517 22.2 17.4621 23.1429 18.6207 23.1429C19.7793 23.1429 20.6896 22.2 20.6896 21C20.6896 19.8 19.7793 18.8571 18.6207 18.8571ZM18.6207 24C17.0483 24 15.7241 22.6286 15.7241 21C15.7241 19.3714 17.0483 18 18.6207 18C20.1931 18 21.5172 19.3714 21.5172 21C21.5172 22.6286 20.1931 24 18.6207 24Z" fill="#043962"/>
</g>
<defs>
<clipPath id="clip0_300_10789">
<rect width="24" height="24" fill="white"/>
</clipPath>
</defs>
</svg>
