<svg width="24" height="24" viewBox="0 0 24 24" fill="none" xmlns="http://www.w3.org/2000/svg">
<g clip-path="url(#clip0_300_10767)">
<path d="M7.76025 11.9802L9.60025 13.8232L11.0403 12.3808L9.20025 10.5377L7.76025 11.9802ZM9.60025 14.7848C9.52025 14.7848 9.36025 14.7848 9.28025 14.7047L6.88025 12.3007C6.72025 12.1404 6.72025 11.9 6.88025 11.7398L8.88025 9.73641C9.04025 9.57614 9.28025 9.57614 9.44025 9.73641L11.8403 12.1404C12.0003 12.3007 12.0003 12.5411 11.8403 12.7014L9.84025 14.7047C9.76025 14.7848 9.68025 14.7848 9.60025 14.7848Z" fill="#043962"/>
<path d="M18.1602 2.36394L19.6002 3.80634L20.9602 2.36394L19.5202 0.921536L18.1602 2.36394ZM19.6002 4.76795C19.5202 4.76795 19.3602 4.76795 19.2802 4.68781L17.2802 2.68447C17.1202 2.52421 17.1202 2.28381 17.2802 2.12354L19.2802 0.1202C19.4402 -0.0400668 19.6802 -0.0400668 19.8402 0.1202L21.8402 2.12354C22.0002 2.28381 22.0002 2.52421 21.8402 2.68447L19.8402 4.68781C19.7602 4.76795 19.6802 4.76795 19.6002 4.76795Z" fill="#043962"/>
<path d="M6.4001 23.1988H20.0001V20.7947H18.8001C18.6401 20.7947 18.4801 20.7146 18.4001 20.5543C18.3201 20.3941 18.4001 20.2338 18.4801 20.1537C20.0001 18.4709 20.8001 16.4675 20.8001 14.3841C20.8001 12.7013 20.4801 11.2589 19.7601 9.97671C19.6801 10.2171 19.5201 10.4575 19.3601 10.6178C19.2001 10.8582 19.0401 11.0185 18.8001 11.1787C18.7201 11.2589 18.6401 11.339 18.5601 11.339C18.9601 12.2205 19.2001 13.2622 19.2001 14.3039C19.2001 17.7497 16.0001 20.7146 12.4001 20.7146C10.4801 20.7146 8.5601 20.4742 7.2801 18.9517C7.2001 18.7914 7.2001 18.6311 7.2001 18.551C7.2001 18.4709 7.4401 18.3907 7.6001 18.3907H11.2001V16.7881H2.4001V18.3907H3.6001C3.7601 18.3907 3.9201 18.4709 4.0001 18.6311C4.4001 19.5126 4.8801 19.9133 5.6001 20.3941C5.8401 20.5543 6.0001 20.7146 6.2401 20.8749C6.3201 20.955 6.4001 21.0351 6.4001 21.1954V23.1988ZM20.4001 24.0001H6.0001C5.7601 24.0001 5.6001 23.8398 5.6001 23.5994V21.4358C5.4401 21.3557 5.2801 21.1954 5.1201 21.1153C4.4001 20.5543 3.7601 20.1537 3.2801 19.1921H2.0001C1.7601 19.1921 1.6001 19.0318 1.6001 18.7914V16.3874C1.6001 16.147 1.7601 15.9867 2.0001 15.9867H11.6001C11.8401 15.9867 12.0001 16.147 12.0001 16.3874V18.7914C12.0001 19.0318 11.8401 19.1921 11.6001 19.1921H8.5601C9.5201 19.8331 10.8001 19.9934 12.3201 19.9934C15.5201 19.9934 18.3201 17.349 18.3201 14.3841C18.3201 13.2622 18.0801 12.3006 17.6001 11.4993C17.5201 11.4191 17.5201 11.2589 17.6001 11.1787C17.6001 11.0986 17.6801 11.0185 17.8401 10.9383C18.0001 10.8582 18.1601 10.7781 18.3201 10.6178C18.4801 10.4575 18.6401 10.3774 18.7201 10.2171C18.9601 9.81645 19.1201 9.41578 19.2001 8.93498C19.2001 8.77471 19.3601 8.61444 19.5201 8.61444C19.6801 8.53431 19.8401 8.61444 19.9201 8.77471C21.0401 10.2972 21.6001 12.2205 21.6001 14.3841C21.6001 16.3874 20.8801 18.3106 19.6801 19.9934H20.4001C20.6401 19.9934 20.8001 20.1537 20.8001 20.3941V23.5994C20.8001 23.8398 20.5601 24.0001 20.4001 24.0001Z" fill="#043962"/>
<path d="M8.95996 9.17523L12.4 12.621L14.4 10.858C13.92 10.2971 13.6 9.49576 13.6 8.77456C13.6 7.01162 15.04 5.56922 16.8 5.56922C17.68 5.56922 18.56 5.96988 19.2 6.61095L20.16 5.56922L16.32 1.72281L8.95996 9.17523ZM12.4 13.5826C12.32 13.5826 12.16 13.5826 12.08 13.5024L8.07996 9.49576C7.91996 9.33549 7.91996 9.09509 8.07996 8.93482L16.08 0.92147C16.24 0.761203 16.48 0.761203 16.64 0.92147L21.04 5.32882C21.2 5.48908 21.2 5.72948 21.04 5.88975L19.36 7.57255C19.28 7.65269 19.12 7.73282 19.04 7.65269C18.96 7.65269 18.8 7.57256 18.72 7.49242C18.32 6.77122 17.6 6.37055 16.8 6.37055C15.44 6.37055 14.4 7.41229 14.4 8.77456C14.4 9.49576 14.72 10.1368 15.28 10.6176C15.36 10.6978 15.44 10.7779 15.44 10.9382C15.44 11.0984 15.36 11.1786 15.28 11.2587L12.72 13.5024C12.56 13.5826 12.48 13.5826 12.4 13.5826Z" fill="#043962"/>
<path d="M16.8001 6.37067C15.4401 6.37067 14.4001 7.41241 14.4001 8.77468C14.4001 10.1369 15.4401 11.1787 16.8001 11.1787C18.1601 11.1787 19.2001 10.1369 19.2001 8.77468C19.2001 7.41241 18.0801 6.37067 16.8001 6.37067ZM16.8001 11.98C15.0401 11.98 13.6001 10.5376 13.6001 8.77468C13.6001 7.01174 15.0401 5.56934 16.8001 5.56934C18.5601 5.56934 20.0001 7.01174 20.0001 8.77468C20.0001 10.5376 18.5601 11.98 16.8001 11.98Z" fill="#043962"/>
</g>
<defs>
<clipPath id="clip0_300_10767">
<rect width="24" height="24" fill="white"/>
</clipPath>
</defs>
</svg>
