<svg width="24" height="24" viewBox="0 0 24 24" fill="none" xmlns="http://www.w3.org/2000/svg">
<g clip-path="url(#clip0_300_10779)">
<path d="M10.6524 0.8C6.63102 1.04 3.46524 2.32 2.0107 3.68C0.470588 5.12 0.470588 7.44 2.0107 8.88C3.97861 10.72 5.68984 10.8 7.40107 9.28C8.34225 8.4 8.59893 7.04 8.85562 5.52C9.19786 4 9.54011 2.24 10.6524 0.8ZM5.00535 11.2C3.97861 11.2 2.78075 10.72 1.41176 9.52C-0.470588 7.76 -0.470588 4.88 1.41176 3.2C2.95187 1.68 6.54545 0 11.5936 0C11.7647 0 11.9358 0.08 12.0214 0.24C12.107 0.4 12.0214 0.56 11.9358 0.64C10.4813 2 10.139 3.84 9.79679 5.68C9.45455 7.28 9.19786 8.88 8.08556 9.92C7.31551 10.56 6.28877 11.2 5.00535 11.2Z" fill="#043962"/>
<path d="M12.0214 24C3.80753 24 0.898438 18.64 0.898438 13.6C0.898438 13.36 0.898438 8.24002 5.26207 4.08002C5.4332 4.00002 5.77544 4.00002 5.94657 4.08002C6.11769 4.16002 6.11769 4.48002 5.94657 4.64002C1.75405 8.56002 1.75405 13.52 1.75405 13.6C1.75405 18.24 4.49202 23.2 12.0214 23.2C18.9519 23.2 20.1498 17.6 20.1498 17.52C20.1498 17.28 20.4065 17.2 20.6631 17.2C20.9198 17.2 21.091 17.44 21.0054 17.68C21.0054 17.76 19.722 24 12.0214 24Z" fill="#043962"/>
<path d="M18.4385 12C18.1819 12 18.0107 11.84 18.0107 11.6V8.4C18.0107 8.16 18.1819 8 18.4385 8C18.6952 8 18.8664 8.16 18.8664 8.4V11.6C18.8664 11.84 18.6952 12 18.4385 12Z" fill="#043962"/>
<path d="M22.7164 12C22.4597 12 22.2886 11.84 22.2886 11.6V8.4C22.2886 8.16 22.4597 8 22.7164 8C22.9731 8 23.1442 8.16 23.1442 8.4V11.6C23.1442 11.84 22.9731 12 22.7164 12Z" fill="#043962"/>
<path d="M18.0109 12.0002V14.8002C18.0109 15.9202 18.9521 16.8002 20.1499 16.8002H21.0055C22.2034 16.8002 23.1446 15.9202 23.1446 14.8002V12.0002H18.0109ZM21.0055 17.6002H20.1499C18.5243 17.6002 17.1553 16.3202 17.1553 14.8002V11.6002C17.1553 11.3602 17.3264 11.2002 17.5831 11.2002H23.5724C23.8291 11.2002 24.0002 11.3602 24.0002 11.6002V14.8002C24.0002 16.3202 22.6312 17.6002 21.0055 17.6002Z" fill="#043962"/>
</g>
<defs>
<clipPath id="clip0_300_10779">
<rect width="24" height="24" fill="white"/>
</clipPath>
</defs>
</svg>
