<svg width="24" height="24" viewBox="0 0 24 24" fill="none" xmlns="http://www.w3.org/2000/svg">
<path fill-rule="evenodd" clip-rule="evenodd" d="M23.6 21.6H2.4V0.4C2.4 0.16 2.24 0 2 0C1.76 0 1.6 0.16 1.6 0.4V21.6H0.4C0.16 21.6 0 21.76 0 22C0 22.24 0.16 22.4 0.4 22.4H1.6V23.6C1.6 23.84 1.76 24 2 24C2.24 24 2.4 23.84 2.4 23.6V22.4H23.6C23.84 22.4 24 22.24 24 22C24 21.76 23.84 21.6 23.6 21.6ZM23.6 4H18.8C18.64 4 18.48 4.08 18.4 4.24C18.4 4.4 18.4 4.56 18.48 4.72L20.4 6.64L15.44 11.92L13.36 10.48C13.2 10.4 13.04 10.4 12.88 10.56L4.88 18.56C4.72 18.72 4.72 18.96 4.88 19.12C4.96 19.2 5.12 19.2 5.2 19.2C5.28 19.2 5.44 19.2 5.36 19.12L13.12 11.36L15.28 12.8C15.44 12.88 15.6 12.88 15.76 12.72L20.96 7.2L23.28 9.52C23.36 9.52 23.52 9.6 23.6 9.6C23.68 9.6 23.68 9.6 23.76 9.6C23.92 9.52 24 9.36 24 9.2V4.4C24 4.16 23.84 4 23.6 4ZM23.2 8.24L19.76 4.8H23.2V8.24Z" fill="#043962"/>
</svg>
