<svg width="24" height="24" viewBox="0 0 24 24" fill="none" xmlns="http://www.w3.org/2000/svg">
<path d="M3.99999 24.0001C3.91999 24.0001 3.83999 24.0001 3.75999 23.9201C3.59999 23.7601 3.51999 23.5201 3.67999 23.3601L6.87999 19.3601C7.03999 19.2001 7.27999 19.1201 7.43999 19.2801C7.59999 19.4401 7.67999 19.6801 7.51999 19.8401L4.31999 23.8401C4.23999 23.9201 4.07999 24.0001 3.99999 24.0001Z" fill="#043962"/>
<path d="M19.9998 24.0001C19.9198 24.0001 19.7598 23.9201 19.6798 23.8401L16.4798 19.8401C16.3198 19.6801 16.3998 19.4401 16.5598 19.2801C16.7198 19.1201 16.9598 19.2001 17.1198 19.3601L20.3198 23.3601C20.4798 23.5201 20.3998 23.7601 20.2398 23.9201C20.1598 24.0001 20.0798 24.0001 19.9998 24.0001Z" fill="#043962"/>
<path d="M19.2 23.1999H4.87998C4.63998 23.1999 4.47998 23.0399 4.47998 22.7999C4.47998 22.5599 4.63998 22.3999 4.87998 22.3999H19.2C19.44 22.3999 19.6 22.5599 19.6 22.7999C19.6 23.0399 19.44 23.1999 19.2 23.1999Z" fill="#043962"/>
<path d="M12.0798 21.5199C11.9998 21.5199 11.9998 21.5199 11.9998 21.5199L4.79979 19.2799C4.55979 19.1999 4.47979 18.9599 4.55979 18.7999L5.59979 15.4399C5.67979 15.1999 5.91979 15.1199 6.07979 15.1999L12.1598 16.8799L18.2398 15.1999C18.4798 15.1199 18.6398 15.2799 18.7198 15.4399L19.7598 18.7999C19.8398 19.0399 19.6798 19.1999 19.5198 19.2799L12.3198 21.5199C12.1598 21.5199 12.0798 21.5199 12.0798 21.5199ZM5.35979 18.6399L12.0798 20.7199L18.7998 18.6399L17.9998 15.9999L12.2398 17.5999C12.1598 17.5999 12.0798 17.5999 11.9998 17.5999L6.23979 15.9999L5.35979 18.6399Z" fill="#043962"/>
<path d="M18.1599 15.84C18.0799 15.84 17.9199 15.76 17.8399 15.68C17.6799 15.52 17.6799 15.28 17.8399 15.12L18.5599 14.4C18.6399 14.32 18.7199 14.16 18.7199 14V8.64C18.7199 8.32 18.4799 8.08 18.2399 8.08L11.9999 6.8L5.6799 8.16C5.3599 8.24 5.1999 8.48 5.1999 8.72V14.08C5.1999 14.24 5.2799 14.4 5.3599 14.48L6.0799 15.2C6.2399 15.36 6.2399 15.6 6.0799 15.76C5.9199 15.92 5.6799 15.92 5.5199 15.76L4.7999 15.04C4.5599 14.8 4.3999 14.4 4.3999 14.08V8.72C4.3999 8.08 4.8799 7.44 5.5199 7.36L11.9199 6C11.9999 6 11.9999 6 12.0799 6L18.4799 7.36C19.1199 7.52 19.5999 8.08 19.5999 8.72V14.08C19.5999 14.48 19.4399 14.8 19.1999 15.04L18.4799 15.76C18.3999 15.84 18.2399 15.84 18.1599 15.84Z" fill="#043962"/>
<path d="M12.0002 13.6C10.4802 13.6 9.2002 12.32 9.2002 10.8C9.2002 9.28 10.4802 8 12.0002 8C13.5202 8 14.8002 9.28 14.8002 10.8C14.8002 12.32 13.5202 13.6 12.0002 13.6ZM12.0002 8.8C10.8802 8.8 10.0002 9.68 10.0002 10.8C10.0002 11.92 10.8802 12.8 12.0002 12.8C13.1202 12.8 14.0002 11.92 14.0002 10.8C14.0002 9.68 13.1202 8.8 12.0002 8.8Z" fill="#043962"/>
<path d="M18.4002 7.9201C18.1602 7.9201 18.0002 7.7601 18.0002 7.5201V4.3201C18.0002 4.0801 17.7602 3.7601 17.5202 3.7601L12.0002 2.4001L6.4802 3.6801C6.2402 3.7601 6.0002 4.0001 6.0002 4.3201V7.6001C6.0002 7.8401 5.8402 8.0001 5.6002 8.0001C5.3602 8.0001 5.2002 7.7601 5.2002 7.5201V4.3201C5.2002 3.6801 5.6802 3.1201 6.3202 2.9601L11.9202 1.6001C12.0002 1.6001 12.0002 1.6001 12.0802 1.6001L17.6802 2.9601C18.3202 3.1201 18.8002 3.6801 18.8002 4.3201V7.6001C18.8002 7.7601 18.6402 7.9201 18.4002 7.9201Z" fill="#043962"/>
<path d="M12.0001 6.79984C11.7601 6.79984 11.6001 6.63984 11.6001 6.39984V2.23984C11.6001 1.99984 11.7601 1.83984 12.0001 1.83984C12.2401 1.83984 12.4001 1.99984 12.4001 2.23984V6.39984C12.4001 6.63984 12.2401 6.79984 12.0001 6.79984Z" fill="#043962"/>
<path d="M17.68 21.5998H5.92002C5.68002 21.5998 5.52002 21.4398 5.52002 21.1998C5.52002 20.9598 5.76002 20.7998 5.92002 20.7998H17.68C17.92 20.7998 18.08 20.9598 18.08 21.1998C18.08 21.4398 17.92 21.5998 17.68 21.5998Z" fill="#043962"/>
<path d="M14.4002 2.8C14.1602 2.8 14.0002 2.64 14.0002 2.4V2C14.0002 1.36 13.4402 0.8 12.8002 0.8H11.2002C10.5602 0.8 10.0002 1.36 10.0002 2V2.4C10.0002 2.64 9.8402 2.8 9.6002 2.8C9.3602 2.8 9.2002 2.64 9.2002 2.4V2C9.2002 0.88 10.0802 0 11.2002 0H12.8002C13.9202 0 14.8002 0.88 14.8002 2V2.4C14.8002 2.64 14.6402 2.8 14.4002 2.8Z" fill="#043962"/>
<path d="M7.2 13.6002C6.56 13.6002 6 13.0402 6 12.4002C6 11.7602 6.56 11.2002 7.2 11.2002C7.84 11.2002 8.4 11.7602 8.4 12.4002C8.4 13.0402 7.84 13.6002 7.2 13.6002ZM7.2 12.0002C6.96 12.0002 6.8 12.1602 6.8 12.4002C6.8 12.6402 6.96 12.8002 7.2 12.8002C7.44 12.8002 7.6 12.6402 7.6 12.4002C7.6 12.1602 7.44 12.0002 7.2 12.0002Z" fill="#043962"/>
<path d="M16.8001 13.6002C16.1601 13.6002 15.6001 13.0402 15.6001 12.4002C15.6001 11.7602 16.1601 11.2002 16.8001 11.2002C17.4401 11.2002 18.0001 11.7602 18.0001 12.4002C18.0001 13.0402 17.4401 13.6002 16.8001 13.6002ZM16.8001 12.0002C16.5601 12.0002 16.4001 12.1602 16.4001 12.4002C16.4001 12.6402 16.5601 12.8002 16.8001 12.8002C17.0401 12.8002 17.2001 12.6402 17.2001 12.4002C17.2001 12.1602 17.0401 12.0002 16.8001 12.0002Z" fill="#043962"/>
</svg>
