<svg width="24" height="24" viewBox="0 0 24 24" fill="none" xmlns="http://www.w3.org/2000/svg">
<rect width="24" height="24" rx="12" fill="#0080CA"/>
<path d="M12.6854 5.33398C13.4357 5.33522 13.8159 5.33919 14.1444 5.34897L14.2738 5.3532C14.4233 5.35852 14.5707 5.36518 14.7485 5.37352C15.4579 5.40629 15.9419 5.51852 16.3669 5.68352C16.8063 5.85296 17.1774 6.08185 17.5479 6.4524C17.9179 6.82296 18.1469 7.19518 18.3169 7.63352C18.4813 8.05796 18.5935 8.5424 18.6269 9.25185C18.6348 9.42962 18.6412 9.57709 18.6465 9.72659L18.6507 9.85598C18.6604 10.1845 18.6649 10.5647 18.6663 11.315L18.6668 11.8121C18.6669 11.8729 18.6669 11.9355 18.6669 12.0002L18.6668 12.1883L18.6664 12.6854C18.6651 13.4357 18.6612 13.8159 18.6514 14.1444L18.6471 14.2738C18.6419 14.4233 18.6352 14.5707 18.6269 14.7485C18.5941 15.4579 18.4813 15.9419 18.3169 16.3669C18.1474 16.8063 17.9179 17.1774 17.5479 17.5479C17.1774 17.9179 16.8046 18.1469 16.3669 18.3169C15.9419 18.4813 15.4579 18.5935 14.7485 18.6269C14.5707 18.6348 14.4233 18.6412 14.2738 18.6465L14.1444 18.6507C13.8159 18.6604 13.4357 18.6649 12.6854 18.6663L12.1883 18.6668C12.1275 18.6669 12.0649 18.6669 12.0002 18.6669L11.8121 18.6668L11.315 18.6664C10.5647 18.6651 10.1845 18.6612 9.85598 18.6514L9.72659 18.6471C9.57709 18.6419 9.42962 18.6352 9.25185 18.6269C8.5424 18.5941 8.05907 18.4813 7.63352 18.3169C7.19462 18.1474 6.82296 17.9179 6.4524 17.5479C6.08185 17.1774 5.85352 16.8046 5.68352 16.3669C5.51852 15.9419 5.40685 15.4579 5.37352 14.7485C5.3656 14.5707 5.35914 14.4233 5.3539 14.2738L5.34971 14.1444C5.33996 13.8159 5.33551 13.4357 5.33407 12.6854L5.33398 11.315C5.33522 10.5647 5.33919 10.1845 5.34897 9.85598L5.3532 9.72659C5.35852 9.57709 5.36518 9.42962 5.37352 9.25185C5.40629 8.54185 5.51852 8.05852 5.68352 7.63352C5.85296 7.19462 6.08185 6.82296 6.4524 6.4524C6.82296 6.08185 7.19518 5.85352 7.63352 5.68352C8.05852 5.51852 8.54185 5.40685 9.25185 5.37352C9.42962 5.3656 9.57709 5.35914 9.72659 5.3539L9.85598 5.34971C10.1845 5.33996 10.5647 5.33551 11.315 5.33407L12.6854 5.33398ZM12.0002 8.66685C10.1583 8.66685 8.66685 10.1599 8.66685 12.0002C8.66685 13.8421 10.1599 15.3335 12.0002 15.3335C13.8421 15.3335 15.3335 13.8405 15.3335 12.0002C15.3335 10.1583 13.8405 8.66685 12.0002 8.66685ZM12.0002 10.0002C13.1048 10.0002 14.0002 10.8953 14.0002 12.0002C14.0002 13.1048 13.1051 14.0002 12.0002 14.0002C10.8956 14.0002 10.0002 13.1051 10.0002 12.0002C10.0002 10.8956 10.8953 10.0002 12.0002 10.0002ZM15.5002 7.66685C15.0407 7.66685 14.6669 8.04012 14.6669 8.49962C14.6669 8.95911 15.0401 9.33296 15.5002 9.33296C15.9597 9.33296 16.3335 8.95969 16.3335 8.49962C16.3335 8.04012 15.9591 7.66627 15.5002 7.66685Z" fill="white"/>
</svg>
