<svg width="24" height="24" viewBox="0 0 24 24" fill="none" xmlns="http://www.w3.org/2000/svg">
<rect width="24" height="24" rx="12" fill="#0080CA"/>
<path d="M8.62715 7.33345C8.6269 7.87632 8.29755 8.36484 7.79439 8.56865C7.29123 8.77246 6.71474 8.65086 6.33676 8.2612C5.95878 7.87152 5.8548 7.2916 6.07383 6.79488C6.29287 6.29816 6.79119 5.98383 7.33382 6.00012C8.05453 6.02175 8.62748 6.61241 8.62715 7.33345ZM8.66715 9.65345H6.00048V18.0001H8.66715V9.65345ZM12.8805 9.65345H10.2271V18.0001H12.8538V13.6201C12.8538 11.1801 16.0338 10.9534 16.0338 13.6201V18.0001H18.6672V12.7134C18.6672 8.60012 13.9605 8.75345 12.8538 10.7734L12.8805 9.65345Z" fill="white"/>
</svg>
