<svg width="39" height="64" viewBox="0 0 39 64" fill="none" xmlns="http://www.w3.org/2000/svg">
<g clip-path="url(#clip0_622_4530)">
<path d="M38.6118 0.305054H-0.388184V64.3051H38.6118V0.305054Z" fill="white"/>
<path d="M32.367 3.0387H36.2901V54.6434H1.93896V44.1519L32.367 3.0387Z" fill="#F9E925"/>
<path d="M1.92188 3.02173L1.93916 44.0611L32.3672 3.03878L1.92188 3.02173Z" fill="#E42528"/>
<mask id="mask0_622_4530" style="mask-type:luminance" maskUnits="userSpaceOnUse" x="-1" y="0" width="40" height="65">
<path d="M38.6118 0.305054H-0.388184V64.3051H38.6118V0.305054Z" fill="white"/>
</mask>
<g mask="url(#mask0_622_4530)">
<path d="M36.3133 2.23169H1.12109V55.4277H37.1198V2.23169H36.3133Z" stroke="white" stroke-width="1.04573"/>
</g>
<path d="M2.63061 54.6321V3.02174L1.92781 3.72079H36.3192L35.6107 3.02174V54.6321L36.3192 53.9387H1.92204L2.62485 54.6321H2.63061ZM37.022 54.6321V2.32837H1.21924V55.3311H37.022V54.6321Z" fill="#1D1D1D"/>
<path d="M31.8544 3.72644L1.28809 44.9135L4.83668 45.0784L31.5837 9.29042L31.8544 3.72644Z" fill="#1892D1"/>
<path d="M28.0695 28.0624L14.0249 18.9066L29.1813 11.4216L28.0695 28.0624Z" fill="#1D1D1D"/>
<path d="M27.2055 43.2938H16.8247L22.0381 34.3596L27.2055 43.2938Z" fill="#1D1D1D"/>
<mask id="mask1_622_4530" style="mask-type:luminance" maskUnits="userSpaceOnUse" x="-1" y="0" width="40" height="65">
<path d="M38.6118 0.305054H-0.388184V64.3051H38.6118V0.305054Z" fill="white"/>
</mask>
<g mask="url(#mask1_622_4530)">
<path d="M19.5264 48.3235C19.5494 46.215 24.2559 46.3855 26.1973 48.3235H19.5264Z" fill="#E42528"/>
<path d="M4.08197 59.1218H4.06469L3.30427 60.3608H4.94032L4.08197 59.1218ZM2.92407 60.9064L2.35952 61.6282H0.942383L3.62687 58.1216H4.66956L7.27916 61.6282H5.84475L5.31476 60.9064H2.92407Z" fill="#1D1D1D"/>
<path d="M11.8588 61.0485H13.7599V61.6282H10.5166V58.2125H11.8588V61.0485Z" fill="#1D1D1D"/>
<path d="M19.2555 61.6282H17.9132V58.7922H16.5249V58.2125H20.6438V58.7922H19.2555V61.6282Z" fill="#1D1D1D"/>
<path d="M25.3046 58.7922V59.5424H27.4419V60.1221H25.3046V61.0485H27.5225V61.6282H23.9624V58.2125H27.5225V58.7922H25.3046Z" fill="#1D1D1D"/>
<path d="M31.2495 58.1216H32.2173L35.8408 60.5086H35.8581V58.2125H37.2003V61.6964H36.2325L32.609 59.3094H32.5918V61.6282H31.2495V58.1216Z" fill="#1D1D1D"/>
</g>
</g>
<defs>
<clipPath id="clip0_622_4530">
<rect width="39" height="64" fill="white" transform="translate(-0.388184 0.305054)"/>
</clipPath>
</defs>
</svg>
