<svg width="14" height="14" viewBox="0 0 14 14" fill="none" xmlns="http://www.w3.org/2000/svg">
<path d="M11.0213 10.0779L13.8764 12.933L12.9337 13.8758L10.0785 11.0207C9.05192 11.842 7.74998 12.3334 6.33398 12.3334C3.02198 12.3334 0.333984 9.64537 0.333984 6.33337C0.333984 3.02137 3.02198 0.333374 6.33398 0.333374C9.64598 0.333374 12.334 3.02137 12.334 6.33337C12.334 7.74937 11.8427 9.05131 11.0213 10.0779ZM9.68378 9.58324C10.499 8.74311 11.0007 7.59711 11.0007 6.33337C11.0007 3.75504 8.91232 1.66671 6.33398 1.66671C3.75565 1.66671 1.66732 3.75504 1.66732 6.33337C1.66732 8.91171 3.75565 11 6.33398 11C7.59772 11 8.74372 10.4984 9.58385 9.68317L9.68378 9.58324Z" fill="#043962"/>
</svg>
