<svg width="24" height="24" viewBox="0 0 24 24" fill="none" xmlns="http://www.w3.org/2000/svg">
<rect width="24" height="24" rx="12" fill="#0080CA"/>
<path d="M12.1628 6.6665C12.5188 6.66846 13.4097 6.67708 14.3562 6.71499L14.6918 6.72962C15.6448 6.77474 16.597 6.85182 17.0693 6.9835C17.6992 7.16047 18.1944 7.67684 18.3617 8.33138C18.6282 9.37078 18.6615 11.3994 18.6656 11.8904L18.6662 11.9921V11.9992C18.6662 11.9992 18.6662 12.0017 18.6662 12.0064L18.6656 12.1082C18.6615 12.5991 18.6282 14.6278 18.3617 15.6672C18.192 16.3241 17.6969 16.8405 17.0693 17.015C16.597 17.1467 15.6448 17.2238 14.6918 17.2689L14.3562 17.2835C13.4097 17.3214 12.5188 17.33 12.1628 17.332L12.0065 17.3326H11.9996C11.9996 17.3326 11.9972 17.3326 11.9926 17.3326L11.8365 17.332C11.0829 17.3279 7.93198 17.2938 6.92984 17.015C6.2999 16.838 5.80478 16.3217 5.63741 15.6672C5.37096 14.6278 5.33766 12.5991 5.3335 12.1082V11.8904C5.33766 11.3994 5.37096 9.37078 5.63741 8.33138C5.8071 7.67441 6.30222 7.15805 6.92984 6.9835C7.93198 6.70466 11.0829 6.67065 11.8365 6.6665H12.1628ZM10.6662 9.66593V14.3326L14.6662 11.9992L10.6662 9.66593Z" fill="white"/>
</svg>
